<?xml version="1.0" encoding="UTF-8" standalone="no"?>
<!-- Created with Inkscape (http://www.inkscape.org/) -->

<svg
   width="187mm"
   height="44mm"
   viewBox="0 0 187 44"
   version="1.1"
   id="svg5"
   inkscape:version="1.3.2 (091e20e, 2023-11-25, custom)"
   sodipodi:docname="logoUCaldas.svg"
   xml:space="preserve"
   inkscape:export-filename="logoUCaldas.png"
   inkscape:export-xdpi="96"
   inkscape:export-ydpi="96"
   xmlns:inkscape="http://www.inkscape.org/namespaces/inkscape"
   xmlns:sodipodi="http://sodipodi.sourceforge.net/DTD/sodipodi-0.dtd"
   xmlns="http://www.w3.org/2000/svg"
   xmlns:svg="http://www.w3.org/2000/svg"><sodipodi:namedview
     id="namedview7"
     pagecolor="#ffffff"
     bordercolor="#666666"
     borderopacity="1.0"
     inkscape:pageshadow="2"
     inkscape:pageopacity="0.0"
     inkscape:pagecheckerboard="0"
     inkscape:document-units="mm"
     showgrid="false"
     inkscape:zoom="0.93974428"
     inkscape:cx="439.48126"
     inkscape:cy="180.36822"
     inkscape:window-width="1920"
     inkscape:window-height="1001"
     inkscape:window-x="-9"
     inkscape:window-y="-9"
     inkscape:window-maximized="1"
     inkscape:current-layer="layer1"
     inkscape:showpageshadow="2"
     inkscape:deskcolor="#d1d1d1"
     inkscape:clip-to-page="false" /><defs
     id="defs2"><rect
       x="259.59387"
       y="36.117405"
       width="220.46667"
       height="44.394314"
       id="rect12859" /><clipPath
       clipPathUnits="userSpaceOnUse"
       id="clipPath910"><ellipse
         style="fill:none;stroke:#000000;stroke-width:0.231948"
         id="ellipse912"
         cx="77.045761"
         cy="94.664757"
         rx="18.730278"
         ry="19.227987" /></clipPath></defs><g
     inkscape:label="Capa 1"
     inkscape:groupmode="layer"
     id="layer1"><text
       xml:space="preserve"
       transform="scale(0.26458333)"
       id="text12857"
       style="font-style:normal;font-weight:normal;font-size:40px;line-height:1.25;font-family:sans-serif;white-space:pre;shape-inside:url(#rect12859);fill:#000000;fill-opacity:1;stroke:none" /><g
       id="g2"
       transform="matrix(1.0436344,0,0,1.1654474,0.74226119,-3.4093611)"><text
         xml:space="preserve"
         style="font-style:normal;font-weight:normal;font-size:6.71696px;line-height:1.25;font-family:sans-serif;fill:#000000;fill-opacity:1;stroke:none;stroke-width:0.167925"
         x="32.454594"
         y="14.684485"
         id="text1101"
         transform="scale(0.97764393,1.0228673)"
         inkscape:export-filename="logo.png"
         inkscape:export-xdpi="96"
         inkscape:export-ydpi="96"><tspan
           sodipodi:role="line"
           id="tspan1099"
           style="font-style:normal;font-variant:normal;font-weight:normal;font-stretch:normal;font-family:'Harlow Solid Italic';-inkscape-font-specification:'Harlow Solid Italic, ';fill:#000000;fill-opacity:1;stroke-width:0.167925"
           x="32.454594"
           y="14.684485">Prof. Ana María Pulecio-Montoya, PhD.</tspan><tspan
           sodipodi:role="line"
           style="font-style:normal;font-variant:normal;font-weight:normal;font-stretch:normal;font-family:'Modern No. 20';-inkscape-font-specification:'Modern No. 20, ';fill:#000000;fill-opacity:1;stroke-width:0.167925"
           x="32.454594"
           y="23.71715"
           id="tspan28025">Departamento de matemáticas</tspan><tspan
           sodipodi:role="line"
           style="fill:#000000;fill-opacity:1;stroke-width:0.167925"
           x="32.454594"
           y="32.313446"
           id="tspan18431"><tspan
   style="font-style:normal;font-variant:normal;font-weight:normal;font-stretch:normal;font-family:'Modern No. 20';-inkscape-font-specification:'Modern No. 20, ';fill:#000000;fill-opacity:1;stroke-width:0.167925"
   id="tspan21913">Universidad de Caldas</tspan> </tspan></text><path
         style="fill:#000000;fill-opacity:1;stroke-width:0.737294"
         d="M 14.219072,35.321206 C 11.913149,35.087828 9.9023705,34.300891 7.7318608,32.782371 7.1560374,32.379518 5.4711374,30.693137 5.0065584,30.054674 4.5374432,29.409977 3.9070526,28.367744 3.5558486,27.656193 3.2143669,26.964341 2.7609969,25.607534 2.6512139,24.948878 2.625812,24.796496 2.5495042,24.440277 2.4816338,24.157283 2.29892,23.395425 2.3020618,20.702075 2.4866963,19.843083 2.9391521,17.737745 3.333846,16.672792 4.202982,15.212244 4.8602145,14.107792 5.3575413,13.482561 6.3754431,12.481065 7.3654976,11.506968 7.6630032,11.270434 8.7479584,10.594777 10.194917,9.6936822 11.265695,9.2760442 13.163952,8.8723977 c 0.680181,-0.1446338 1.081582,-0.1750052 2.344776,-0.1774111 1.572529,-0.00299 1.719424,0.015838 3.399923,0.4359463 1.295988,0.3239827 2.957951,1.1312751 4.376913,2.1260701 0.577017,0.404531 2.26143,2.090776 2.725302,2.728266 1.331554,1.829927 1.976437,3.329049 2.519891,5.857814 0.184603,0.858992 0.187744,3.552342 0.0052,4.3142 -0.0679,0.282994 -0.144185,0.639213 -0.169579,0.791595 -0.113423,0.680467 -0.565544,2.021158 -0.925995,2.745853 -0.291504,0.586077 -0.877028,1.573887 -1.305011,2.201624 -0.386399,0.566746 -2.141514,2.370613 -2.68399,2.758544 -2.007018,1.435245 -3.356595,2.030552 -5.754032,2.538139 -0.695382,0.147226 -2.597282,0.217311 -3.478083,0.128168 z m 3.751639,-0.358671 c 0.515851,-0.104378 1.061011,-0.23074 1.211467,-0.280803 1.330659,-0.442766 3.117583,-1.368029 4.103216,-2.124632 0.835736,-0.641537 2.63909,-2.562131 3.046803,-3.244883 0.721637,-1.208441 1.624358,-3.096349 1.611814,-3.370874 -7.45e-4,-0.02219 0.04802,-0.183402 0.108904,-0.358249 0.10093,-0.289714 0.262789,-1.067831 0.305523,-1.46874 0.0095,-0.08891 0.04765,-0.211493 0.0848,-0.272391 0.03715,-0.0609 0.06641,-0.82526 0.065,-1.698583 -0.0022,-1.392263 -0.02747,-1.709992 -0.204481,-2.579315 -0.111041,-0.545299 -0.238341,-1.088532 -0.282883,-1.207184 -0.04452,-0.118652 -0.06619,-0.215731 -0.04817,-0.215731 0.01802,0 -0.05658,-0.204825 -0.16582,-0.455167 C 27.697625,17.43564 27.555785,17.106138 27.491677,16.953756 27.253203,16.386917 26.776632,15.471966 26.3322,14.727728 26.072685,14.293147 25.449672,13.564439 24.637771,12.745838 23.317908,11.415086 22.902465,11.110133 21.253398,10.261566 19.873497,9.5515048 19.311167,9.3522769 17.775315,9.0293172 16.595807,8.7812892 14.345306,8.7810818 13.163924,9.0288922 11.470575,9.3840934 10.119332,9.9487788 8.3086179,11.057928 7.416676,11.604284 5.2246494,13.82437 4.685198,14.727728 4.240767,15.471966 3.764195,16.386917 3.5257214,16.953756 3.4616134,17.106138 3.3197722,17.43564 3.2105201,17.685983 3.101268,17.936325 3.0266487,18.14115 3.0447003,18.14115 c 0.018054,0 -0.00365,0.09708 -0.048161,0.215731 -0.044543,0.118652 -0.1718397,0.661885 -0.2828853,1.207184 -0.177031,0.869323 -0.2022193,1.187052 -0.2044788,2.579315 -0.00142,0.873323 0.027829,1.637686 0.064986,1.698583 0.037165,0.0609 0.075321,0.183474 0.084799,0.272391 0.042733,0.400909 0.2045942,1.179026 0.3055193,1.46874 0.060906,0.174847 0.1099161,0.336058 0.1089021,0.358249 -0.012538,0.274525 0.8901827,2.162433 1.611817,3.370874 0.410358,0.68718 2.2458951,2.635194 3.0617135,3.249326 1.4791199,1.113453 3.5346399,2.061887 5.2216139,2.409295 1.520558,0.313137 3.429255,0.309969 5.002187,-0.0083 z M 14.453549,34.12597 c -0.128963,-0.03026 -0.190513,-0.05922 -0.136778,-0.06437 0.05373,-0.0052 0.0977,-0.07778 0.0977,-0.161396 0,-0.105908 -0.07409,-0.168511 -0.244241,-0.206361 -0.259893,-0.05782 -0.41443,0.06403 -0.340245,0.268255 0.02638,0.07262 -0.0015,0.09198 -0.08537,0.05937 -0.06848,-0.02662 -0.148019,-0.04893 -0.176744,-0.04961 -0.02872,-6.67e-4 -0.01179,-0.02738 0.03762,-0.05937 0.04942,-0.03199 0.23126,-0.305149 0.404099,-0.607029 l 0.314253,-0.548872 0.05608,0.302759 c 0.03084,0.166518 0.120929,0.482445 0.200186,0.702062 0.07926,0.219616 0.135964,0.403859 0.126015,0.40943 -0.01,0.0055 -0.123607,-0.01463 -0.25257,-0.04487 z m -0.147956,-0.673905 c -0.02609,-0.06887 -0.04744,-0.162285 -0.04744,-0.207592 0,-0.04987 -0.04626,-0.04351 -0.117239,0.01616 -0.16984,0.142759 -0.143788,0.316639 0.04744,0.316639 0.118055,0 0.151248,-0.03545 0.117238,-0.125213 z m 2.121475,0.624764 c -0.07523,-0.01991 -0.136778,-0.09254 -0.136778,-0.161405 0,-0.109499 0.01899,-0.107798 0.151393,0.01356 0.08326,0.07632 0.188781,0.11536 0.234477,0.08676 0.14901,-0.09327 0.08754,-0.352692 -0.115487,-0.487426 -0.307933,-0.204348 -0.387139,-0.409911 -0.227001,-0.589128 0.189818,-0.21243 0.482343,-0.170278 0.528866,0.0762 l 0.03703,0.196176 -0.138318,-0.18572 c -0.08858,-0.118932 -0.184076,-0.167936 -0.265559,-0.136268 -0.216061,0.08397 -0.14158,0.280745 0.185398,0.489798 0.354776,0.226828 0.402306,0.441949 0.138927,0.628789 -0.09554,0.06777 -0.192263,0.119095 -0.214938,0.114045 -0.02268,-0.0051 -0.102779,-0.02548 -0.178007,-0.04539 z m 1.374146,-0.321442 c -0.0179,-0.326344 -0.172723,-0.914838 -0.254083,-0.965764 -0.113407,-0.07099 0.43762,-0.246183 0.589112,-0.187306 0.0618,0.02402 0.151245,0.117243 0.19876,0.207164 0.07166,0.135607 0.05648,0.188024 -0.08899,0.307326 -0.09646,0.07911 -0.224243,0.143833 -0.283962,0.143833 -0.131734,0 -0.132891,0.01767 -0.01787,0.273334 0.04989,0.110893 0.129024,0.202169 0.175858,0.202835 0.106313,0.0015 -0.119271,0.154234 -0.230274,0.155896 -0.04452,6.66e-4 -0.08437,-0.06113 -0.08855,-0.137318 z m 0.325816,-0.81247 c 0,-0.143836 -0.04733,-0.203623 -0.175858,-0.22211 -0.187851,-0.02703 -0.200729,0.0024 -0.125606,0.286398 0.06517,0.246388 0.301464,0.195998 0.301464,-0.06428 z m -5.473292,0.624444 c -0.07652,-0.352841 -0.323338,-0.8887 -0.372349,-0.808385 -0.06077,0.09959 -0.167841,0.684037 -0.146054,0.797248 0.011,0.05715 -0.02964,0.07886 -0.0979,0.05233 -0.08132,-0.03161 -0.09588,-0.08521 -0.04803,-0.176845 0.167725,-0.321139 0.302377,-0.921982 0.227186,-1.013741 -0.05681,-0.06933 -0.03809,-0.08431 0.06969,-0.05576 0.09272,0.02456 0.199856,0.191015 0.288941,0.44894 0.07787,0.225451 0.165935,0.437771 0.1957,0.471822 0.06648,0.07605 0.260841,-0.551978 0.201114,-0.649854 -0.02354,-0.03859 0.02632,-0.05184 0.110819,-0.02946 0.124607,0.033 0.134779,0.05978 0.05385,0.141742 -0.05488,0.05558 -0.147557,0.302772 -0.205954,0.549316 -0.126384,0.53357 -0.203886,0.609851 -0.277013,0.272647 z m 6.619607,-0.655652 c 0.029,-0.35231 0.05552,-0.65726 0.05893,-0.677666 0.0034,-0.02041 0.217722,0.174878 0.476232,0.433964 0.385906,0.386768 0.445562,0.479755 0.333362,0.519616 -0.09151,0.03251 -0.164302,-0.0062 -0.220337,-0.117326 -0.04602,-0.09123 -0.142719,-0.155539 -0.214875,-0.142906 -0.08328,0.01458 -0.116369,-0.01615 -0.09061,-0.08416 0.02232,-0.05892 -0.031,-0.172735 -0.118487,-0.252928 -0.156713,-0.143638 -0.159075,-0.142194 -0.159075,0.09735 0,0.133733 0.04396,0.261118 0.0977,0.283077 0.07816,0.03195 0.07816,0.04117 0,0.04617 -0.126119,0.008 -0.127894,0.378661 -0.002,0.421157 0.0532,0.01796 0.02705,0.05048 -0.05894,0.07325 -0.147716,0.03912 -0.152265,0.01236 -0.101898,-0.599613 z m -8.415117,0.269771 c -0.08598,-0.03742 -0.111484,-0.07053 -0.05669,-0.0736 0.0548,-0.0031 0.13585,-0.103524 0.180115,-0.223253 0.203482,-0.550382 0.344611,-0.811386 0.438725,-0.811386 0.129276,0 0.131019,-0.01158 -0.05343,0.354831 -0.08559,0.170031 -0.177434,0.426916 -0.204096,0.570856 -0.0518,0.279665 -0.0643,0.287149 -0.304636,0.182547 z M 9.8260235,32.734407 c -0.06337,-0.02606 -0.0185,-0.144749 0.136778,-0.361847 0.3324955,-0.46487 0.2864055,-0.512255 -0.168956,-0.17371 l -0.4000305,0.297406 0.053266,-0.508354 0.05326,-0.508354 -0.2048617,0.336581 c -0.1126739,0.185119 -0.1815616,0.374764 -0.1530829,0.421431 0.028477,0.04666 -0.02343,0.03769 -0.1153491,-0.01994 -0.1272658,-0.07979 -0.139209,-0.110767 -0.050071,-0.129838 0.064374,-0.01378 0.2150413,-0.23446 0.3348066,-0.490412 0.1197654,-0.25595 0.2529261,-0.454846 0.2959141,-0.44199 0.04298,0.01286 0.07483,0.241129 0.07076,0.507269 -0.0079,0.520126 -0.01151,0.518388 0.412513,0.201021 0.264864,-0.198243 0.453961,-0.23624 0.532789,-0.107061 0.02657,0.04354 -0.0022,0.07916 -0.06407,0.07916 -0.0618,0 -0.155592,0.105685 -0.208419,0.234855 -0.05283,0.129169 -0.145024,0.276019 -0.204881,0.32633 -0.05986,0.05032 -0.10883,0.158359 -0.10883,0.240104 0,0.149991 -0.03942,0.168132 -0.211532,0.09735 z M 20.97984,32.634817 c 0,-0.08604 -0.03234,-0.176682 -0.07189,-0.201431 -0.03954,-0.02476 -0.160402,-0.205393 -0.268585,-0.40143 l -0.196696,-0.356432 0.306613,-0.158423 0.306613,-0.158425 0.159161,0.161198 c 0.127554,0.129188 0.142492,0.192745 0.07522,0.320055 -0.07357,0.139225 -0.04995,0.173238 0.191097,0.275244 0.151271,0.06401 0.320133,0.117473 0.375247,0.118797 0.06041,0.0014 0.04705,0.03379 -0.03367,0.08145 -0.09452,0.05581 -0.217961,0.04346 -0.419881,-0.04199 -0.157301,-0.06656 -0.316878,-0.12103 -0.354616,-0.12103 -0.117014,0 -0.07579,0.151047 0.08591,0.314825 0.15393,0.1559 0.15393,0.156828 0,0.240264 -0.129699,0.0703 -0.154527,0.05862 -0.154527,-0.07268 z m 0.03269,-0.609622 c 0.152105,-0.05912 0.161354,-0.296656 0.0163,-0.418583 -0.113771,-0.09563 -0.361623,-0.04054 -0.361623,0.08037 0,0.06419 0.173272,0.386255 0.207807,0.386255 0.0076,0 0.06952,-0.02162 0.137517,-0.04805 z m 1.402081,-0.426243 C 22.03875,31.445333 21.877496,30.91239 22.113606,30.60413 c 0.110191,-0.143863 0.112823,-0.139824 0.04128,0.06334 -0.08853,0.251368 -0.04258,0.424291 0.17894,0.673544 0.171868,0.193379 0.368223,0.224582 0.605141,0.09616 0.199337,-0.108047 0.190697,-0.201866 -0.04012,-0.43563 -0.185522,-0.187897 -0.1867,-0.196231 -0.03907,-0.276247 0.111749,-0.06057 0.152213,-0.05711 0.152213,0.013 0,0.05252 0.05556,0.157682 0.123469,0.23368 0.09688,0.108419 0.104796,0.173513 0.03676,0.302262 -0.07052,0.133466 -0.475169,0.417791 -0.566685,0.398185 -0.01288,-0.0028 -0.09879,-0.03583 -0.190916,-0.07347 z M 7.822133,31.295206 c -0.1891007,-0.211629 -0.1593122,-0.428563 0.1051254,-0.765573 0.1289624,-0.164356 0.2344772,-0.348616 0.2344772,-0.409468 0,-0.08844 0.03348,-0.09249 0.1668777,-0.02019 0.091783,0.04975 0.1356876,0.113341 0.097567,0.141315 -0.038118,0.02798 -0.1835597,0.185682 -0.3231966,0.350464 -0.3651967,0.430959 -0.3223,0.769052 0.097576,0.769052 0.057311,0 0.2451083,-0.179243 0.4173335,-0.398316 0.1722252,-0.219075 0.3337077,-0.364605 0.3588519,-0.3234 0.025138,0.0412 0.018862,0.08687 -0.013978,0.101468 -0.032832,0.0146 -0.1766902,0.177943 -0.3196913,0.362979 -0.2905837,0.375997 -0.5931242,0.446631 -0.8209487,0.191666 z M 22.584212,30.49351 c -0.02541,-0.04164 -0.106619,-0.05676 -0.18047,-0.0336 -0.111537,0.03497 -0.109716,0.02623 0.01075,-0.05165 0.116486,-0.0753 0.169774,-0.06868 0.270766,0.0336 0.07464,0.0756 0.08904,0.127349 0.03544,0.127349 -0.04966,0 -0.111082,-0.03407 -0.13649,-0.07571 z M 6.5399399,30.09816 C 6.30647,29.813338 6.2979865,29.784405 6.4350326,29.740351 c 0.082007,-0.02636 0.2900361,-0.20278 0.4622875,-0.392044 0.2251849,-0.247423 0.3370189,-0.319976 0.3980051,-0.258209 0.1143667,0.115831 0.1070186,0.21256 -0.016148,0.21256 -0.055531,0 -0.2500199,0.15382 -0.432198,0.341821 -0.3195282,0.329744 -0.3260999,0.346526 -0.1859768,0.474958 0.07989,0.07323 0.2304145,0.133682 0.3344984,0.134349 0.1508686,9.94e-4 0.1654702,0.01677 0.072007,0.07795 -0.189668,0.124143 -0.259792,0.0931 -0.527568,-0.233573 z M 23.546094,30.1932 c -0.274841,-0.301312 -0.317173,-0.46827 -0.184575,-0.727966 0.120634,-0.236267 0.403031,-0.354914 0.640778,-0.269216 0.374751,0.135082 0.631777,0.559673 0.495228,0.818083 -0.239097,0.452475 -0.634229,0.526855 -0.951431,0.179099 z m 0.794212,-0.09823 c 0.19299,-0.365221 -0.403631,-0.917814 -0.774122,-0.716994 -0.219305,0.11887 -0.205885,0.33637 0.03894,0.631047 0.242251,0.291583 0.604166,0.333894 0.735186,0.08595 z m -7.087273,-0.653782 c -0.132171,-0.141498 -0.33644,-0.48881 -0.453934,-0.771805 -0.257941,-0.62128 -0.297737,-0.717785 -0.510264,-1.237389 -0.210886,-0.515589 -0.186395,-0.929331 0.05709,-0.964401 0.09508,-0.01369 0.341282,0.07279 0.547115,0.192197 0.478162,0.27738 0.441398,0.238173 0.458544,0.489013 0.01309,0.191452 0.08634,0.356316 0.415795,0.935827 0.145576,0.256068 0.398733,0.979041 0.398733,1.138716 0,0.197859 -0.296118,0.475111 -0.50744,0.475111 -0.09093,0 -0.273467,-0.11577 -0.405636,-0.257269 z M 12.7788,29.410728 c -0.228991,-0.294841 -0.205464,-0.463716 0.164232,-1.178907 0.179422,-0.347099 0.422127,-0.82701 0.539343,-1.066467 0.232477,-0.474917 0.517354,-0.696005 0.941271,-0.730502 l 0.264381,-0.02151 -0.005,0.356218 c -0.0027,0.19592 -0.06682,0.498706 -0.142388,0.672856 -0.353883,0.815581 -0.626846,1.363966 -0.872605,1.753066 -0.224053,0.354735 -0.305148,0.423824 -0.497467,0.423824 -0.155137,0 -0.282395,-0.06776 -0.391766,-0.208574 z m 7.589294,-1.917825 c -0.780327,-0.846222 -1.306206,-1.359499 -1.435438,-1.40104 -0.251901,-0.08097 -0.319519,-0.401986 -0.176521,-0.838022 0.06928,-0.211264 0.161595,-0.384117 0.205137,-0.384117 0.04355,0 0.366053,0.27056 0.716691,0.601244 0.350638,0.330684 0.765748,0.667919 0.922466,0.749412 0.482328,0.250808 0.532453,0.339284 0.498474,0.879877 -0.01787,0.284327 -0.073,0.511909 -0.133381,0.550692 -0.190176,0.122135 -0.387104,0.07004 -0.597428,-0.158046 z M 9.5754605,26.556404 c -0.2237461,-0.04593 -0.3976551,-0.205655 -0.3976551,-0.365201 0,-0.115035 0.7111941,-1.023441 1.2354986,-1.578096 0.385249,-0.407551 0.849554,-0.581825 1.220115,-0.457965 0.153976,0.05147 0.279957,0.128206 0.279957,0.17053 0,0.272946 -0.915791,1.548558 -1.400188,1.950331 -0.318467,0.264145 -0.6028025,0.349168 -0.9377275,0.280401 z m 5.1116385,-0.730778 c -0.671975,-0.108531 -1.251032,-0.434151 -1.821244,-1.024135 -0.513217,-0.531014 -0.586116,-0.645444 -0.961312,-1.508968 -0.159345,-0.366732 -0.18537,-0.547121 -0.178378,-1.23637 0.0079,-0.771578 0.02154,-0.834129 0.312637,-1.425353 0.368741,-0.74894 1.09351,-1.520558 1.737351,-1.849652 0.991161,-0.506623 2.414574,-0.498845 3.444343,0.01882 0.700725,0.352256 1.376713,1.05621 1.758098,1.83083 0.291089,0.591225 0.304809,0.653775 0.312636,1.425354 0.0085,0.834579 -0.009,0.903593 -0.491013,1.935735 -0.184518,0.395141 -1.112662,1.299068 -1.506337,1.467032 -0.186581,0.07961 -0.446242,0.191495 -0.577027,0.248642 -0.299785,0.130991 -1.512845,0.201551 -2.029754,0.118065 z m 1.603191,-0.999647 c 0.702147,-0.126695 1.461961,-0.797937 1.876999,-1.658192 0.158448,-0.328418 0.189065,-0.503608 0.179841,-1.029076 -0.01262,-0.718888 -0.109814,-1.036071 -0.487513,-1.590926 -0.298152,-0.437996 -0.995272,-0.932966 -1.557314,-1.105725 -0.462325,-0.142108 -1.108647,-0.142598 -1.632927,-0.0013 -0.391698,0.105612 -1.157355,0.591204 -1.299335,0.824059 -0.03709,0.06083 -0.12502,0.170005 -0.195397,0.242605 -0.31136,0.321198 -0.516242,0.988316 -0.51313,1.670806 0.0021,0.481412 0.04327,0.678997 0.217213,1.04471 0.213622,0.449151 0.784573,1.111856 1.18933,1.380457 0.450119,0.298705 1.318257,0.385635 2.222233,0.222521 z m -1.505237,-0.317393 c -0.605032,-0.148492 -0.814333,-0.270441 -1.237622,-0.721101 -0.954659,-1.01639 -0.942057,-2.617324 0.02778,-3.528815 0.220041,-0.206804 0.441828,-0.376007 0.492859,-0.376007 0.05104,0 0.131829,-0.04765 0.179551,-0.105888 0.04772,-0.05824 0.331589,-0.150201 0.630814,-0.204359 0.927677,-0.167907 1.805176,0.09683 2.400095,0.724088 0.451236,0.475767 0.616627,0.970149 0.603052,1.802628 -0.01372,0.841533 -0.175766,1.229089 -0.755538,1.807022 -0.367035,0.36587 -0.498875,0.441885 -0.995382,0.573907 -0.660596,0.175654 -0.739327,0.177323 -1.345608,0.02853 z m 1.167209,-0.911129 c 0.487503,-0.141863 0.916088,-0.635433 1.032307,-1.188833 0.06582,-0.313412 0.06931,-0.505457 0.01196,-0.65822 -0.04454,-0.118634 -0.08097,-0.298664 -0.08097,-0.40007 0,-0.303414 -0.38045,-0.6335 -0.952139,-0.826096 -0.495183,-0.166823 -0.543152,-0.169664 -0.925104,-0.05479 -0.756832,0.227632 -1.122836,0.539307 -1.216565,1.035982 -0.209485,1.11008 0.117312,1.75096 1.057917,2.07467 0.281482,0.09687 0.564545,0.161772 0.629026,0.144223 0.06448,-0.01756 0.264084,-0.07464 0.443563,-0.126871 z M 15.022583,23.45572 c -0.173559,-0.08786 -0.315759,-0.257113 -0.441434,-0.525413 -0.294713,-0.629173 -0.298134,-0.88708 -0.01919,-1.446747 0.215731,-0.432831 0.277536,-0.495897 0.562021,-0.573482 0.175799,-0.04794 0.430999,-0.06264 0.567111,-0.03267 0.447066,0.09844 0.911831,0.75621 0.911831,1.290486 0,0.297304 -0.329402,1.020599 -0.52942,1.162491 -0.296999,0.210688 -0.770722,0.267188 -1.050923,0.12534 z m 0.80152,-0.743101 c 0.240663,-0.39489 0.266166,-0.594979 0.112638,-0.883713 -0.284913,-0.535825 -0.641709,-0.553225 -0.898309,-0.04381 -0.19728,0.391651 -0.19538,0.428255 0.04368,0.84141 0.253007,0.437251 0.509825,0.467057 0.741986,0.08612 z M 4.3170011,25.430297 c -0.1265258,-0.400719 -0.1262272,-0.412905 0.00715,-0.290688 0.1285358,0.117812 0.1864368,0.111939 0.7573913,-0.07682 0.340018,-0.112409 0.6797651,-0.260791 0.7549933,-0.329735 0.2624893,-0.240565 0.1303689,-0.759447 -0.2285674,-0.897661 -0.300686,-0.115785 -1.4235055,0.204816 -1.505729,0.429934 -0.058941,0.161374 -0.062484,0.16046 -0.1171243,-0.03018 -0.1485224,-0.518249 -0.1492482,-0.527799 -0.027866,-0.36686 0.1071185,0.142027 0.1261907,0.141438 0.64159,-0.01979 1.0131326,-0.316931 1.4287467,-0.157544 1.5107573,0.579369 0.050394,0.452803 -0.1088709,0.724844 -0.4658112,0.795659 -0.5004537,0.09929 -1.1472246,0.375416 -1.1708941,0.499893 -0.013088,0.06882 -0.083222,-0.06308 -0.1558555,-0.293117 z m 22.0167419,0.151859 c -0.160302,-0.04132 -0.184348,-0.0634 -0.07601,-0.0698 0.493947,-0.02919 0.707874,-0.654322 0.242353,-0.7082 -0.1651,-0.01911 -0.289107,0.03718 -0.468955,0.212834 -0.341652,0.333699 -0.634686,0.434747 -0.89471,0.308525 -0.298537,-0.144916 -0.396867,-0.485287 -0.226866,-0.785289 0.07401,-0.130604 0.134562,-0.280043 0.134562,-0.332087 0,-0.06329 0.107874,-0.08421 0.325786,-0.06316 l 0.325786,0.03147 -0.306247,0.107963 c -0.168434,0.05938 -0.313801,0.108499 -0.323035,0.109155 -0.0092,6.54e-4 -0.05571,0.07482 -0.103254,0.164819 -0.06726,0.127283 -0.05879,0.206404 0.03813,0.356219 0.173145,0.267634 0.333262,0.242432 0.82181,-0.129356 0.29166,-0.221954 0.473069,-0.30834 0.58409,-0.278139 0.08857,0.0241 0.199356,0.04429 0.24619,0.04489 0.18877,0.0024 0.248994,0.348719 0.12762,0.733885 -0.06507,0.206487 -0.139561,0.371216 -0.16554,0.366065 -0.02598,-0.0052 -0.152749,-0.03656 -0.281711,-0.0698 z M 21.87867,24.238048 c -0.214938,-0.08009 -0.760098,-0.276273 -1.211467,-0.43597 -0.451369,-0.159698 -0.863967,-0.332717 -0.916884,-0.384487 -0.13505,-0.132124 0.14488,-0.585576 0.401811,-0.650887 0.279458,-0.07104 2.503272,0.545979 2.922354,0.810833 0.207323,0.131025 0.178506,0.347406 -0.08511,0.639115 -0.198522,0.219675 -0.559872,0.226636 -1.110701,0.02139 z m 3.26975,-0.376207 c 0.02496,-0.04091 0.05397,-0.203313 0.06444,-0.360892 0.01417,-0.21301 0.04317,-0.266234 0.113074,-0.207477 0.129827,0.109125 0.486537,0.0058 0.529226,-0.153344 0.01928,-0.07186 0.05701,-0.262647 0.08384,-0.423965 0.04448,-0.267359 0.02813,-0.304122 -0.184692,-0.415588 -0.294398,-0.154188 -0.318034,-0.153009 -0.325573,0.01625 -0.0039,0.08824 -0.02089,0.101376 -0.04671,0.03618 -0.05563,-0.140437 0.05069,-0.542323 0.116871,-0.44181 0.02929,0.04448 0.453056,0.344011 0.941708,0.665633 0.488653,0.321623 0.857951,0.59496 0.820674,0.607413 -0.211404,0.07061 -1.208192,0.359466 -1.474655,0.427325 -0.171951,0.04379 -0.396104,0.134752 -0.498118,0.202139 -0.102015,0.06738 -0.165056,0.08905 -0.140091,0.04814 z m 1.566129,-0.831175 c 0.129973,-0.06814 0.108947,-0.09821 -0.188113,-0.269098 -0.183941,-0.105819 -0.368342,-0.180952 -0.40978,-0.166963 -0.04144,0.01399 -0.0833,0.158174 -0.09302,0.320413 l -0.01768,0.294977 0.281134,-0.05131 c 0.154624,-0.02822 0.346983,-0.08583 0.427464,-0.128015 z M 3.7066632,22.900179 c 0,-0.188075 0.1163992,-0.329229 0.6643527,-0.805645 0.6278162,-0.545851 0.8187193,-0.784771 0.5407216,-0.676728 -0.067995,0.02643 -0.3264096,0.04805 -0.5742496,0.04805 -0.3900722,0 -0.4620143,0.02393 -0.5354319,0.178108 -0.072811,0.152911 -0.084279,0.122114 -0.081037,-0.217688 0.00208,-0.217689 0.019863,-0.33346 0.039525,-0.257268 0.031529,0.1222 0.1479298,0.138802 0.9874627,0.140849 l 0.9517191,0.0024 -0.2735577,0.248837 c -0.1504557,0.13686 -0.5021727,0.455019 -0.7815916,0.707021 l -0.5080346,0.458168 0.7034323,-0.04932 c 0.5071564,-0.03556 0.7299995,-0.08439 0.7986457,-0.175014 0.079125,-0.104453 0.095213,-0.0655 0.095213,0.230527 0,0.31294 -0.012612,0.339388 -0.1038301,0.217689 -0.086242,-0.115065 -0.2313362,-0.138529 -0.8566025,-0.138529 -0.6681265,0 -0.7637508,0.0178 -0.8503958,0.158319 -0.1371577,0.222436 -0.2163384,0.196922 -0.2163384,-0.06971 z M 8.3714995,22.538561 C 7.7290988,22.30652 7.5709138,21.921149 8.0640372,21.789517 c 0.9842865,-0.26274 3.2631458,-0.324006 3.2631458,-0.08773 0,0.153666 -0.50513,0.430828 -1.307522,0.717431 -0.7043031,0.251565 -1.1856152,0.286417 -1.6481615,0.11934 z M 19.605116,21.436506 c -0.0695,-0.183426 0.164363,-0.510498 0.460179,-0.643595 0.72366,-0.325596 1.806418,-0.67277 2.098223,-0.67277 0.367573,0 0.816379,0.254819 0.897586,0.509624 0.120248,0.377304 -0.813384,0.657726 -2.9589,0.888725 -0.371892,0.04004 -0.456119,0.02615 -0.497088,-0.08198 z m 6.259671,1.39e-4 c -0.369926,-0.169566 -0.507657,-0.386805 -0.58957,-0.929917 -0.04193,-0.27793 -0.0958,-0.594381 -0.119733,-0.703225 -0.03919,-0.178244 -0.0333,-0.184061 0.05934,-0.05858 0.09228,0.125001 0.167146,0.131173 0.728126,0.06004 0.918807,-0.116511 1.054849,-0.155695 1.057526,-0.304605 0.0061,-0.336443 0.154173,0.159267 0.201412,0.674023 0.05569,0.607195 -0.05814,0.955374 -0.381274,1.166127 -0.267245,0.174289 -0.692095,0.217018 -0.955824,0.09613 z m 0.775822,-0.340165 c 0.171733,-0.08294 0.303257,-0.219536 0.354368,-0.368031 0.09474,-0.275258 0.107123,-0.663628 0.02265,-0.711006 -0.05873,-0.03294 -1.093555,0.06707 -1.387325,0.134084 -0.08597,0.01961 -0.182698,0.03839 -0.214938,0.04171 -0.08472,0.0088 -0.07201,0.260177 0.02783,0.550234 0.1544,0.448581 0.679183,0.60329 1.197407,0.353003 z M 5.6436762,20.775419 C 5.6134132,20.6582 5.4621091,20.615246 4.7935388,20.534063 c -0.7434344,-0.09028 -0.8217136,-0.08719 -0.9110179,0.03585 -0.085802,0.118217 -0.096573,0.106258 -0.088451,-0.09821 0.00506,-0.12805 0.032817,-0.339684 0.061621,-0.470297 0.045682,-0.207131 0.058115,-0.216384 0.09731,-0.0724 0.038423,0.141137 0.1475441,0.179975 0.7524092,0.267782 0.3891088,0.05649 0.794283,0.0859 0.9003866,0.06535 0.1845422,-0.03573 0.1911489,-0.0233 0.1522076,0.286335 -0.048168,0.383029 -0.065262,0.41696 -0.1143257,0.226946 z M 11.596532,19.361188 C 11.20501,18.948377 10.528555,18.608132 9.8780535,18.496823 9.5123965,18.434259 9.4049479,18.219908 9.3525495,17.448503 l -0.03898,-0.573907 h 0.246309 c 0.269295,0 0.7220935,0.259412 1.0178925,0.583162 0.103672,0.113468 0.496574,0.391027 0.873117,0.6168 0.593088,0.35561 0.691029,0.445079 0.732539,0.669181 0.07025,0.37925 -0.08285,0.901444 -0.264285,0.901444 -0.02929,0 -0.174464,-0.127797 -0.322607,-0.283995 z m 7.051393,-0.0725 c -0.240679,-0.113478 -0.404273,-0.238675 -0.386877,-0.296075 0.01658,-0.05469 0.306216,-0.283876 0.643643,-0.509276 0.337427,-0.225401 0.829013,-0.626146 1.092413,-0.890546 0.397437,-0.398947 0.524141,-0.480727 0.744812,-0.480727 0.251408,0 0.682446,0.107803 0.941356,0.235434 0.171592,0.08459 0.189462,0.387866 0.03316,0.562788 -0.129532,0.144962 -0.88646,0.547492 -1.02952,0.547492 -0.03747,0 -0.251079,0.158159 -0.474682,0.351467 -0.886572,0.766451 -0.928394,0.779268 -1.564305,0.479443 z m 6.271907,-0.336163 c -0.281798,-0.789004 -0.343036,-0.997747 -0.304232,-1.037048 0.02075,-0.02101 0.03772,0.0033 0.03772,0.05415 0,0.144046 0.207188,0.111821 0.992055,-0.154298 0.602181,-0.204177 0.727447,-0.274606 0.727447,-0.408992 0,-0.140972 0.111625,-0.132482 0.120572,0.0092 0.0019,0.02903 0.0493,0.188742 0.105489,0.354925 0.05618,0.166184 0.08107,0.323514 0.05529,0.349622 -0.02577,0.02611 -0.04687,-0.0158 -0.04687,-0.09312 0,-0.182155 -0.285625,-0.141404 -1.113768,0.158905 -0.463818,0.168193 -0.605734,0.254521 -0.605734,0.368469 0,0.267676 0.239547,0.625636 0.493553,0.737524 l 0.24896,0.109666 -0.273956,0.0031 c -0.263322,0.003 -0.280264,-0.01456 -0.436522,-0.452069 z M 3.9853898,19.150433 c 0.1087808,-0.353665 0.1872178,-0.534328 0.2319861,-0.534328 0.025096,0 0.023734,0.03587 -0.00305,0.07972 -0.083324,0.136548 0.1436027,0.165736 0.7869601,0.101219 0.3949561,-0.03961 0.6202463,-0.09659 0.6202463,-0.156881 0,-0.05207 -0.2272601,-0.272823 -0.5050226,-0.490548 -0.3788409,-0.296957 -0.5301856,-0.374714 -0.605734,-0.311213 -0.074009,0.0622 -0.098645,0.05584 -0.092919,-0.02399 0.011934,-0.166464 0.1319024,-0.516929 0.1407365,-0.411146 0.01011,0.121113 0.080558,0.18877 0.932853,0.895941 0.8235055,0.683284 0.8551768,0.628837 -0.461019,0.792541 C 4.5817594,19.147558 4.1812547,19.22366 4.1404166,19.260875 4.0048714,19.3844 3.9298352,19.330945 3.9853598,19.150432 Z M 14.143996,17.843428 c -0.332141,-0.508323 -0.958886,-2.016972 -1.016379,-2.446545 -0.04721,-0.352776 -0.03235,-0.43174 0.108018,-0.573907 0.215787,-0.21855 0.328859,-0.207985 0.565515,0.05284 0.57258,0.631053 1.128859,2.429614 0.954854,3.087226 -0.07709,0.291335 -0.382494,0.231646 -0.612008,-0.119612 z m 2.634856,0.198773 c -0.04274,-0.05442 -0.06755,-0.162566 -0.05515,-0.240318 0.08688,-0.544937 0.466997,-1.858281 0.661204,-2.284508 0.154044,-0.33808 0.495361,-0.5396 1.005369,-0.593588 0.418034,-0.04426 0.46704,-0.03359 0.512489,0.111435 0.06588,0.210215 -0.120112,0.674201 -0.653252,1.629667 -0.698176,1.251236 -1.200369,1.721553 -1.470655,1.377312 z m 7.570926,-0.534863 c -0.168646,-0.303908 -0.171995,-0.329097 -0.03832,-0.288316 0.09982,0.03045 0.193821,-0.02081 0.295164,-0.160974 0.147356,-0.203804 0.147018,-0.208773 -0.03745,-0.550774 -0.144127,-0.267215 -0.230618,-0.344841 -0.383175,-0.343903 -0.219114,0.0014 -0.353169,0.0713 -0.400248,0.208867 -0.01719,0.05024 -0.08777,-0.02146 -0.156837,-0.159329 l -0.125579,-0.250668 0.281897,0.02395 c 0.155044,0.01317 0.644013,-0.02486 1.0866,-0.08453 0.442588,-0.05966 0.822906,-0.07865 0.845154,-0.04219 0.03546,0.05812 -0.229933,0.511744 -0.362331,0.619323 -0.10631,0.08638 -0.74288,1.077727 -0.780247,1.215099 -0.03181,0.116909 -0.07711,0.07929 -0.224627,-0.186559 z m 0.871964,-1.287599 c 0.08142,-0.08246 0.131627,-0.166554 0.111568,-0.186868 -0.0516,-0.05226 -0.83637,0.0601 -0.836015,0.119696 1.6e-4,0.02705 0.07278,0.169586 0.161364,0.316758 l 0.161072,0.267586 0.126987,-0.18362 c 0.06984,-0.100991 0.193603,-0.25109 0.275024,-0.333552 z M 6.442234,17.592346 c 0,-0.134855 -1.3283435,-0.89463 -1.4894954,-0.851949 -0.083516,0.02212 -0.1518472,0.02166 -0.1518472,-9.95e-4 0,-0.117343 0.7459709,-1.28967 0.8206386,-1.28967 0.048064,0 0.1549979,0.05006 0.2376249,0.111258 0.1414779,0.104776 0.1384144,0.10897 -0.052583,0.07199 -0.176081,-0.03409 -0.2299701,0.0099 -0.4088489,0.334092 -0.11332,0.205345 -0.2060363,0.383775 -0.2060363,0.39651 0,0.04241 0.525368,0.352704 0.597185,0.352704 0.1300523,0 0.3587866,-0.530098 0.304072,-0.704693 l -0.052412,-0.167238 0.279008,0.166725 c 0.2814015,0.168157 0.3762337,0.284973 0.1645564,0.202705 -0.1014611,-0.03944 -0.5889807,0.446543 -0.5889807,0.587116 0,0.02669 0.1706239,0.142596 0.3791646,0.257551 L 6.6534447,17.267461 6.87259,16.859665 c 0.1934712,-0.36002 0.2085128,-0.436325 0.1283895,-0.651311 l -0.090756,-0.243516 0.1918408,0.209539 0.1918397,0.209539 -0.3580731,0.641142 c -0.3224604,0.577377 -0.493601,0.77407 -0.493601,0.567295 z m 1.0160693,-1.708763 c 0,-0.07127 -0.1494791,-0.272674 -0.3321764,-0.447541 -0.5662459,-0.541978 -0.8289802,-0.720196 -0.996373,-0.675862 -0.086061,0.02279 -0.1564751,0.02433 -0.1564751,0.0034 0,-0.02092 0.2052182,-0.249122 0.4560391,-0.507125 0.3283876,-0.337791 0.5138455,-0.469097 0.6625522,-0.469097 0.2575019,0 0.4785687,0.312338 0.4243558,0.599561 l -0.038401,0.203471 0.6156975,-0.02551 c 0.3386331,-0.01403 0.6156149,-0.0043 0.6155142,0.02159 -1.008e-4,0.0259 -0.064502,0.106055 -0.1431164,0.178109 -0.1066506,0.09775 -0.2939597,0.131008 -0.7378993,0.131008 -0.3678627,0 -0.616407,0.03514 -0.6511351,0.09205 -0.08204,0.134442 0.4203982,0.564289 0.6030404,0.515917 0.1402213,-0.03714 0.1395967,-0.0277 -0.012485,0.188615 -0.2042942,0.290577 -0.3091352,0.355489 -0.3091352,0.1914 z M 7.2458949,14.724337 C 7.395164,14.412185 7.31814,14.16975 7.0374353,14.068233 6.8604359,14.004219 6.7970145,14.025459 6.6161129,14.209309 l -0.2129585,0.216434 0.3126365,0.271538 c 0.1719499,0.149347 0.3346231,0.272877 0.3614939,0.274512 0.026868,0.0016 0.102746,-0.109721 0.1686101,-0.247456 z m 15.6886901,0.598319 c -0.295819,-0.325034 -0.327511,-0.396775 -0.292399,-0.661904 0.054,-0.407735 0.257261,-0.694085 0.629054,-0.886188 0.506762,-0.261841 1.234687,-0.01708 1.351537,0.454451 0.02639,0.10651 0.105394,0.22619 0.175554,0.265956 0.113385,0.06426 0.106558,0.09495 -0.06143,0.276047 -0.23789,0.256464 -0.340794,0.261731 -0.228306,0.01169 0.181582,-0.403629 -0.136753,-0.916173 -0.569023,-0.916173 -0.289912,0 -0.704947,0.241898 -0.880429,0.513146 -0.06893,0.106546 -0.125326,0.336073 -0.125326,0.510059 0,0.352794 0.206933,0.614026 0.545558,0.688714 0.346253,0.07637 0.359758,0.09611 0.07013,0.102503 -0.240053,0.0053 -0.333633,-0.04923 -0.614921,-0.358297 z M 8.6997286,14.209459 8.5134528,14.005185 l 0.195397,0.06028 c 0.1074694,0.03315 0.2377989,0.0764 0.2896218,0.09611 0.051822,0.01971 0.1869316,-0.05806 0.3002433,-0.172823 0.1891076,-0.191531 0.1966586,-0.222985 0.091982,-0.38313 -0.097862,-0.149719 -0.1958906,-0.177509 -0.6910398,-0.195898 -0.4737323,-0.0176 -0.6014804,-0.05104 -0.713779,-0.186878 -0.2640385,-0.319387 -0.1713588,-0.557865 0.3422351,-0.880619 0.197137,-0.123886 0.212962,-0.120999 0.3907955,0.07129 l 0.1853399,0.200412 -0.2091743,-0.09619 c -0.2680998,-0.123282 -0.586699,-0.04246 -0.6518252,0.165368 -0.091146,0.290854 0.089389,0.391816 0.7006262,0.391816 0.4874396,0 0.5858075,0.02458 0.7329424,0.183211 0.294421,0.317408 0.217385,0.592417 -0.258919,0.924317 L 8.8860044,14.41373 Z M 21.127525,13.686167 c -0.145708,-0.0992 -0.430172,-0.277731 -0.63214,-0.396737 -0.399423,-0.235352 -0.539316,-0.380734 -0.307203,-0.319258 0.101731,0.02694 0.203221,-0.0416 0.332284,-0.224405 0.358679,-0.508044 0.693851,-1.116302 0.693851,-1.259181 0,-0.11718 0.113819,-0.06817 0.605734,0.26084 0.333153,0.222823 0.617279,0.413599 0.63139,0.423944 0.01411,0.01035 -0.02996,0.119921 -0.09795,0.243499 l -0.123604,0.224687 0.04596,-0.21027 c 0.03901,-0.17846 8.19e-4,-0.241329 -0.252372,-0.415588 -0.164085,-0.112925 -0.351721,-0.205075 -0.41697,-0.204778 -0.11054,5.04e-4 -0.530041,0.528127 -0.462086,0.581184 0.01694,0.01323 0.163701,0.105016 0.326118,0.203963 0.237891,0.144926 0.317669,0.161105 0.410336,0.08321 0.148853,-0.125118 0.147936,-0.0018 -0.0015,0.214426 -0.116595,0.168592 -0.116698,0.168564 -0.382981,-0.101126 -0.146494,-0.148371 -0.313835,-0.269322 -0.371868,-0.268784 -0.114745,0.0011 -0.457232,0.488778 -0.457232,0.651113 0,0.179708 0.671965,0.482306 0.947219,0.42655 l 0.246775,-0.04999 -0.198989,0.158529 c -0.244489,0.194776 -0.21473,0.195992 -0.534683,-0.02184 z M 10.162869,13.326259 c 0.04596,-0.206908 -0.8399577,-1.481055 -1.0187475,-1.465185 -0.117675,0.01044 -0.1014428,-0.02523 0.079744,-0.175263 0.226557,-0.1876 0.474282,-0.263167 0.385438,-0.117576 -0.07727,0.126617 0.8022505,1.461851 0.9943805,1.509618 0.151878,0.03775 0.135187,0.06137 -0.149664,0.211745 -0.279868,0.147743 -0.316862,0.152401 -0.291153,0.03666 z m 0.825476,-0.480274 c 0.07521,-0.121976 0.05128,-0.265285 -0.128858,-0.771807 -0.121672,-0.342109 -0.284328,-0.71414 -0.361459,-0.826733 l -0.140239,-0.204718 0.406538,-0.169944 c 0.607155,-0.253809 0.858352,-0.285308 1.132063,-0.141955 0.358427,0.187722 0.5641,0.529071 0.5641,0.936214 0,0.44824 -0.297068,0.773264 -1.003092,1.097488 -0.595995,0.273696 -0.586585,0.272062 -0.469053,0.08146 z m 0.800797,-0.377311 c 0.530278,-0.25611 0.567005,-0.940125 0.07712,-1.436284 -0.246348,-0.249502 -0.296744,-0.268263 -0.592114,-0.220427 -0.431674,0.06991 -0.477936,0.108445 -0.428816,0.357185 0.04886,0.247434 0.570804,1.430828 0.631075,1.430828 0.02248,0 0.163213,-0.05908 0.312739,-0.131302 z m 6.728684,-0.187903 c -0.300913,-0.126663 -0.475976,-0.231335 -0.38903,-0.232604 0.156652,-0.0023 0.282613,-0.19082 0.530418,-0.793905 0.297073,-0.722992 0.31161,-0.786736 0.208203,-0.912929 -0.08718,-0.106384 -0.07345,-0.111233 0.112342,-0.03969 0.535103,0.20605 1.035747,0.472956 1.169113,0.623283 0.237782,0.268023 0.253894,0.792605 0.03439,1.119779 -0.360293,0.537027 -0.801783,0.599606 -1.665439,0.236067 z m 1.216697,-0.161424 c 0.431499,-0.467833 0.365145,-1.13978 -0.14192,-1.437186 -0.220833,-0.129524 -0.239268,-0.129524 -0.350148,0 -0.06437,0.0752 -0.182043,0.314832 -0.261488,0.532521 -0.07945,0.217689 -0.189558,0.484853 -0.244694,0.593697 -0.05513,0.108845 -0.100462,0.240657 -0.100727,0.292916 -7.43e-4,0.146621 0.242122,0.25614 0.573894,0.258795 0.23675,0.0019 0.348582,-0.04939 0.525083,-0.240743 z m -6.687681,-0.07367 c 0.06439,-0.07207 0.117081,-0.184217 0.117081,-0.249224 0,-0.06501 0.04942,-0.275933 0.109815,-0.468724 0.0604,-0.192792 0.173434,-0.588027 0.251187,-0.878299 0.137739,-0.5142092 0.144456,-0.5231372 0.26144,-0.347471 0.06604,0.09916 0.322203,0.489131 0.569254,0.866592 0.247051,0.377462 0.510838,0.710293 0.586194,0.739624 0.116112,0.0452 0.107206,0.06174 -0.05839,0.108455 -0.343836,0.097 -0.576599,0.08355 -0.485303,-0.02805 0.12969,-0.158523 -0.1574,-0.455167 -0.440507,-0.455167 -0.430292,0 -0.637374,0.127957 -0.637374,0.393839 0,0.13169 0.03725,0.239437 0.08278,0.239437 0.177395,0 -0.01565,0.141991 -0.237977,0.17504 -0.214756,0.03192 -0.225066,0.02355 -0.118195,-0.09606 z m 1.018579,-0.886475 c 0.04862,-0.04924 -0.357455,-0.696541 -0.436973,-0.696541 -0.04055,0 -0.07372,0.08674 -0.07372,0.192746 0,0.10601 -0.03293,0.280457 -0.07317,0.387659 -0.04024,0.107202 -0.05607,0.212233 -0.03517,0.233402 0.03799,0.03847 0.563568,-0.06109 0.619038,-0.117266 z m 1.166128,0.542882 c 0.111994,-0.08294 0.161409,-0.285128 0.224945,-0.920368 0.07659,-0.765783 0.07243,-0.8207982 -0.06997,-0.9273612 -0.156557,-0.117152 -0.05545,-0.115036 0.965154,0.0202 0.92408,0.122442 1.184686,1.1628182 0.449045,1.7926632 -0.126212,0.10806 -0.317866,0.136435 -0.935712,0.138529 -0.668976,0.0023 -0.757038,-0.01214 -0.633467,-0.103657 z m 1.246222,-0.06278 c 0.202274,-0.09334 0.438018,-0.568277 0.4375,-0.881398 -5.36e-4,-0.324167 -0.281697,-0.67539 -0.623752,-0.7791842 -0.458645,-0.139172 -0.504666,-0.05956 -0.533709,0.9232672 l -0.02445,0.827225 h 0.274786 c 0.151132,0 0.362461,-0.04046 0.469622,-0.08991 z"
         id="path1" /><path
         style="fill:#000000;stroke-width:1.20396"
         d="m 149.97958,35.635897 c -1.46069,-0.630174 -2.13167,-2.750874 -1.34605,-4.254401 0.18705,-0.357976 0.82444,-0.858141 1.41641,-1.111478 0.92848,-0.397349 1.22233,-0.398117 2.13952,-0.0056 1.35449,0.579661 1.84598,1.278402 0.69022,0.981297 -1.04095,-0.267596 -1.92866,0.385533 -1.40402,1.033004 0.19644,0.242442 0.65851,0.457632 1.02683,0.478201 0.63605,0.03552 0.63806,0.04535 0.0401,0.195884 -0.8488,0.213695 -1.44802,0.743057 -1.23699,1.092786 0.25674,0.425501 1.8363,0.345558 2.3142,-0.117119 0.34241,-0.331513 0.35663,-0.28393 0.0802,0.268303 -0.68696,1.372058 -2.36833,2.022445 -3.72041,1.439131 z m 7.59915,-0.05153 c -0.73198,-0.425496 -1.41641,-1.240633 -1.41641,-1.686897 0,-0.170903 0.278,-0.05304 0.6178,0.26191 0.35463,0.328719 0.83915,0.485637 1.13746,0.368388 0.4652,-0.18284 0.47089,-0.279884 0.0544,-0.925657 -0.25594,-0.396772 -0.7678,-0.767762 -1.13747,-0.824422 -0.96777,-0.14833 -0.87795,-1.457478 0.1572,-2.291468 1.15135,-0.927597 2.77513,-0.874262 3.74893,0.12314 0.42492,0.435219 0.77258,0.942975 0.77258,1.128346 0,0.185372 -0.28327,0.04689 -0.62952,-0.30773 -0.70201,-0.719028 -1.12221,-0.809932 -1.42491,-0.308263 -0.26608,0.440952 0.42038,1.267904 1.35443,1.631635 0.58482,0.22774 0.69743,0.442855 0.53086,1.014166 -0.47566,1.631512 -2.44742,2.582936 -3.7653,1.816852 z m 9.22749,-0.524918 c -0.13436,-1.192171 -1.10856,-1.379647 -1.38149,-0.265854 -0.11147,0.45506 -0.31875,0.827382 -0.46053,0.827382 -0.53689,0 -1.5625,-1.737692 -1.5625,-2.647353 0,-1.316969 1.51601,-2.833186 2.8328,-2.833186 1.30088,0 2.83279,1.516853 2.83279,2.80493 0,1.031064 -0.67667,2.183858 -1.56902,2.673002 -0.50643,0.27761 -0.60693,0.19645 -0.69205,-0.558921 z m -9.7e-4,-3.251319 c 0.0821,-0.85111 -0.0107,-1.022923 -0.55082,-1.022923 -0.50328,0 -0.64945,0.205574 -0.64945,0.913424 0,1.701937 1.0376,1.796597 1.20027,0.109503 z m 5.56698,3.762963 c -1.64344,-0.920677 -1.97087,-3.280134 -0.64383,-4.639347 2.07371,-2.123973 5.9015,0.515565 4.5521,3.138995 -0.50135,0.974683 -0.88955,1.216939 -1.95963,1.222914 -0.50834,0.0028 -0.80147,0.141972 -0.68962,0.327322 0.25573,0.423816 -0.46438,0.395284 -1.25902,-0.04988 z m 2.7912,-2.888589 c 0.54054,-0.79044 0.33684,-1.650402 -0.35772,-1.510143 -0.66142,0.133568 -1.15713,1.030749 -0.91968,1.664527 0.26859,0.716914 0.71877,0.662507 1.2774,-0.154384 z m -21.85812,-4.451573 c -0.62793,-0.643156 -0.92005,-1.265175 -0.92005,-1.959107 0,-1.386867 1.47875,-2.901461 2.83279,-2.901461 1.35406,0 2.8328,1.514594 2.8328,2.901461 0,1.386869 -1.47874,2.901462 -2.8328,2.901462 -0.6775,0 -1.2848,-0.299198 -1.91274,-0.942355 z m 7.68174,0.170609 c -1.24843,-1.099883 -1.24843,-3.159547 0,-4.25943 1.92709,-1.697794 4.58635,-0.413328 4.60793,2.225705 0.0202,2.475388 -2.72923,3.688879 -4.60793,2.033725 z m 7.42652,-0.170609 c -0.62793,-0.643156 -0.92006,-1.265175 -0.92006,-1.959107 0,-1.386867 1.47876,-2.901461 2.8328,-2.901461 1.39023,0 2.83626,1.514901 2.82279,2.95726 -0.0244,2.614688 -2.90903,3.774079 -4.73553,1.903308 z m -11.16391,-6.296645 c -1.16677,-1.195057 -1.07845,-3.078757 0.19584,-4.176995 1.10444,-0.95185 1.82988,-1.036159 3.1049,-0.360838 1.67536,0.887362 1.9028,3.48904 0.41014,4.691626 -1.11309,0.896775 -2.75147,0.828874 -3.71088,-0.153793 z m 7.55413,0 c -2.11818,-2.169518 0.27601,-5.846796 3.04253,-4.673088 1.18782,0.503936 1.95751,1.974723 1.6889,3.227306 -0.45351,2.114858 -3.24529,2.967943 -4.73143,1.445782 z m -3.54222,-6.310076 c -0.91521,-0.873323 -1.16429,-2.048751 -0.68515,-3.233502 0.48752,-1.205511 1.16462,-1.593344 2.78174,-1.593344 1.53915,0 2.56158,1.116952 2.56158,2.798399 0,2.319623 -2.98899,3.621212 -4.65817,2.028447 z"
         id="path2" /></g></g></svg>
